<svg id="visual" viewBox="0 0 960 300" width="960" height="300" xmlns="http://www.w3.org/2000/svg" xmlns:xlink="http://www.w3.org/1999/xlink" version="1.1"><path d="M0 219L16 210.3C32 201.7 64 184.3 96 188.2C128 192 160 217 192 225C224 233 256 224 288 215.7C320 207.3 352 199.7 384 198.3C416 197 448 202 480 211.8C512 221.7 544 236.3 576 239.8C608 243.3 640 235.7 672 233.3C704 231 736 234 768 228C800 222 832 207 864 206.7C896 206.3 928 220.7 944 227.8L960 235L960 0L944 0C928 0 896 0 864 0C832 0 800 0 768 0C736 0 704 0 672 0C640 0 608 0 576 0C544 0 512 0 480 0C448 0 416 0 384 0C352 0 320 0 288 0C256 0 224 0 192 0C160 0 128 0 96 0C64 0 32 0 16 0L0 0Z" fill="#ffffff"></path><path d="M0 170L16 165.7C32 161.3 64 152.7 96 157.2C128 161.7 160 179.3 192 189.5C224 199.7 256 202.3 288 193.7C320 185 352 165 384 161C416 157 448 169 480 171.7C512 174.3 544 167.7 576 160C608 152.3 640 143.7 672 148.2C704 152.7 736 170.3 768 182.7C800 195 832 202 864 194.3C896 186.7 928 164.3 944 153.2L960 142L960 0L944 0C928 0 896 0 864 0C832 0 800 0 768 0C736 0 704 0 672 0C640 0 608 0 576 0C544 0 512 0 480 0C448 0 416 0 384 0C352 0 320 0 288 0C256 0 224 0 192 0C160 0 128 0 96 0C64 0 32 0 16 0L0 0Z" fill="#e3fbfa"></path><path d="M0 149L16 142C32 135 64 121 96 121.3C128 121.7 160 136.3 192 145C224 153.7 256 156.3 288 154.3C320 152.3 352 145.7 384 143.2C416 140.7 448 142.3 480 143.2C512 144 544 144 576 135.8C608 127.7 640 111.3 672 111.7C704 112 736 129 768 135.5C800 142 832 138 864 130.5C896 123 928 112 944 106.5L960 101L960 0L944 0C928 0 896 0 864 0C832 0 800 0 768 0C736 0 704 0 672 0C640 0 608 0 576 0C544 0 512 0 480 0C448 0 416 0 384 0C352 0 320 0 288 0C256 0 224 0 192 0C160 0 128 0 96 0C64 0 32 0 16 0L0 0Z" fill="#c6f6f5"></path><path d="M0 112L16 111.3C32 110.7 64 109.3 96 105.7C128 102 160 96 192 95.3C224 94.7 256 99.3 288 100.8C320 102.3 352 100.7 384 98.8C416 97 448 95 480 89.5C512 84 544 75 576 78.7C608 82.3 640 98.7 672 105.8C704 113 736 111 768 101.8C800 92.7 832 76.3 864 71.3C896 66.3 928 72.7 944 75.8L960 79L960 0L944 0C928 0 896 0 864 0C832 0 800 0 768 0C736 0 704 0 672 0C640 0 608 0 576 0C544 0 512 0 480 0C448 0 416 0 384 0C352 0 320 0 288 0C256 0 224 0 192 0C160 0 128 0 96 0C64 0 32 0 16 0L0 0Z" fill="#a6f1f0"></path><path d="M0 48L16 48.7C32 49.3 64 50.7 96 46.7C128 42.7 160 33.3 192 29.8C224 26.3 256 28.7 288 29.3C320 30 352 29 384 32.2C416 35.3 448 42.7 480 48.3C512 54 544 58 576 61C608 64 640 66 672 60.2C704 54.3 736 40.7 768 39.5C800 38.3 832 49.7 864 52.3C896 55 928 49 944 46L960 43L960 0L944 0C928 0 896 0 864 0C832 0 800 0 768 0C736 0 704 0 672 0C640 0 608 0 576 0C544 0 512 0 480 0C448 0 416 0 384 0C352 0 320 0 288 0C256 0 224 0 192 0C160 0 128 0 96 0C64 0 32 0 16 0L0 0Z" fill="#81ecec"></path></svg>