<svg id="visual" viewBox="0 0 960 300" width="960" height="300" xmlns="http://www.w3.org/2000/svg" xmlns:xlink="http://www.w3.org/1999/xlink" version="1.1"><path d="M0 79L16 87.7C32 96.3 64 113.7 96 109.8C128 106 160 81 192 73C224 65 256 74 288 82.3C320 90.7 352 98.3 384 99.7C416 101 448 96 480 86.2C512 76.3 544 61.7 576 58.2C608 54.7 640 62.3 672 64.7C704 67 736 64 768 70C800 76 832 91 864 91.3C896 91.7 928 77.3 944 70.2L960 63L960 301L944 301C928 301 896 301 864 301C832 301 800 301 768 301C736 301 704 301 672 301C640 301 608 301 576 301C544 301 512 301 480 301C448 301 416 301 384 301C352 301 320 301 288 301C256 301 224 301 192 301C160 301 128 301 96 301C64 301 32 301 16 301L0 301Z" fill="#ffffff"></path><path d="M0 128L16 132.3C32 136.7 64 145.3 96 140.8C128 136.3 160 118.7 192 108.5C224 98.3 256 95.7 288 104.3C320 113 352 133 384 137C416 141 448 129 480 126.3C512 123.7 544 130.3 576 138C608 145.7 640 154.3 672 149.8C704 145.3 736 127.7 768 115.3C800 103 832 96 864 103.7C896 111.3 928 133.7 944 144.8L960 156L960 301L944 301C928 301 896 301 864 301C832 301 800 301 768 301C736 301 704 301 672 301C640 301 608 301 576 301C544 301 512 301 480 301C448 301 416 301 384 301C352 301 320 301 288 301C256 301 224 301 192 301C160 301 128 301 96 301C64 301 32 301 16 301L0 301Z" fill="#e0edff"></path><path d="M0 149L16 156C32 163 64 177 96 176.7C128 176.3 160 161.7 192 153C224 144.3 256 141.7 288 143.7C320 145.7 352 152.3 384 154.8C416 157.3 448 155.7 480 154.8C512 154 544 154 576 162.2C608 170.3 640 186.7 672 186.3C704 186 736 169 768 162.5C800 156 832 160 864 167.5C896 175 928 186 944 191.5L960 197L960 301L944 301C928 301 896 301 864 301C832 301 800 301 768 301C736 301 704 301 672 301C640 301 608 301 576 301C544 301 512 301 480 301C448 301 416 301 384 301C352 301 320 301 288 301C256 301 224 301 192 301C160 301 128 301 96 301C64 301 32 301 16 301L0 301Z" fill="#c0dbff"></path><path d="M0 186L16 186.7C32 187.3 64 188.7 96 192.3C128 196 160 202 192 202.7C224 203.3 256 198.7 288 197.2C320 195.7 352 197.3 384 199.2C416 201 448 203 480 208.5C512 214 544 223 576 219.3C608 215.7 640 199.3 672 192.2C704 185 736 187 768 196.2C800 205.3 832 221.7 864 226.7C896 231.7 928 225.3 944 222.2L960 219L960 301L944 301C928 301 896 301 864 301C832 301 800 301 768 301C736 301 704 301 672 301C640 301 608 301 576 301C544 301 512 301 480 301C448 301 416 301 384 301C352 301 320 301 288 301C256 301 224 301 192 301C160 301 128 301 96 301C64 301 32 301 16 301L0 301Z" fill="#9dcaff"></path><path d="M0 250L16 249.3C32 248.7 64 247.3 96 251.3C128 255.3 160 264.7 192 268.2C224 271.7 256 269.3 288 268.7C320 268 352 269 384 265.8C416 262.7 448 255.3 480 249.7C512 244 544 240 576 237C608 234 640 232 672 237.8C704 243.7 736 257.3 768 258.5C800 259.7 832 248.3 864 245.7C896 243 928 249 944 252L960 255L960 301L944 301C928 301 896 301 864 301C832 301 800 301 768 301C736 301 704 301 672 301C640 301 608 301 576 301C544 301 512 301 480 301C448 301 416 301 384 301C352 301 320 301 288 301C256 301 224 301 192 301C160 301 128 301 96 301C64 301 32 301 16 301L0 301Z" fill="#74b9ff"></path></svg>