<svg id="visual" viewBox="0 0 900 300" width="900" height="300" xmlns="http://www.w3.org/2000/svg" xmlns:xlink="http://www.w3.org/1999/xlink" version="1.1"><rect x="0" y="0" width="900" height="300" fill="#ffcbc6"></rect><path d="M0 101L15 105.5C30 110 60 119 90 115.3C120 111.7 150 95.3 180 85C210 74.7 240 70.3 270 80.2C300 90 330 114 360 126.8C390 139.7 420 141.3 450 131.8C480 122.3 510 101.7 540 88.5C570 75.3 600 69.7 630 68.8C660 68 690 72 720 69.7C750 67.3 780 58.7 810 61C840 63.3 870 76.7 885 83.3L900 90L900 301L885 301C870 301 840 301 810 301C780 301 750 301 720 301C690 301 660 301 630 301C600 301 570 301 540 301C510 301 480 301 450 301C420 301 390 301 360 301C330 301 300 301 270 301C240 301 210 301 180 301C150 301 120 301 90 301C60 301 30 301 15 301L0 301Z" fill="#f4beb9"></path><path d="M0 139L15 144.8C30 150.7 60 162.3 90 167C120 171.7 150 169.3 180 159.8C210 150.3 240 133.7 270 131.2C300 128.7 330 140.3 360 136.5C390 132.7 420 113.3 450 112.8C480 112.3 510 130.7 540 132.3C570 134 600 119 630 121.7C660 124.3 690 144.7 720 146.2C750 147.7 780 130.3 810 121.7C840 113 870 113 885 113L900 113L900 301L885 301C870 301 840 301 810 301C780 301 750 301 720 301C690 301 660 301 630 301C600 301 570 301 540 301C510 301 480 301 450 301C420 301 390 301 360 301C330 301 300 301 270 301C240 301 210 301 180 301C150 301 120 301 90 301C60 301 30 301 15 301L0 301Z" fill="#f9b0a9"></path><path d="M0 185L15 185.8C30 186.7 60 188.3 90 181.3C120 174.3 150 158.7 180 150C210 141.3 240 139.7 270 149.5C300 159.3 330 180.7 360 190C390 199.3 420 196.7 450 185.8C480 175 510 156 540 156.8C570 157.7 600 178.3 630 189.5C660 200.7 690 202.3 720 193.5C750 184.7 780 165.3 810 154.8C840 144.3 870 142.7 885 141.8L900 141L900 301L885 301C870 301 840 301 810 301C780 301 750 301 720 301C690 301 660 301 630 301C600 301 570 301 540 301C510 301 480 301 450 301C420 301 390 301 360 301C330 301 300 301 270 301C240 301 210 301 180 301C150 301 120 301 90 301C60 301 30 301 15 301L0 301Z" fill="#fca199"></path><path d="M0 238L15 234.3C30 230.7 60 223.3 90 215.5C120 207.7 150 199.3 180 200C210 200.7 240 210.3 270 211C300 211.7 330 203.3 360 202.5C390 201.7 420 208.3 450 213.7C480 219 510 223 540 217.3C570 211.7 600 196.3 630 189.7C660 183 690 185 720 190C750 195 780 203 810 211.8C840 220.7 870 230.3 885 235.2L900 240L900 301L885 301C870 301 840 301 810 301C780 301 750 301 720 301C690 301 660 301 630 301C600 301 570 301 540 301C510 301 480 301 450 301C420 301 390 301 360 301C330 301 300 301 270 301C240 301 210 301 180 301C150 301 120 301 90 301C60 301 30 301 15 301L0 301Z" fill="#fe9289"></path><path d="M0 245L15 247C30 249 60 253 90 252.8C120 252.7 150 248.3 180 247.2C210 246 240 248 270 249.5C300 251 330 252 360 248.8C390 245.7 420 238.3 450 235.3C480 232.3 510 233.7 540 236.8C570 240 600 245 630 251C660 257 690 264 720 267.3C750 270.7 780 270.3 810 268.5C840 266.7 870 263.3 885 261.7L900 260L900 301L885 301C870 301 840 301 810 301C780 301 750 301 720 301C690 301 660 301 630 301C600 301 570 301 540 301C510 301 480 301 450 301C420 301 390 301 360 301C330 301 300 301 270 301C240 301 210 301 180 301C150 301 120 301 90 301C60 301 30 301 15 301L0 301Z" fill="#ff8378"></path></svg>