<svg id="visual" viewBox="0 0 900 300" width="900" height="300" xmlns="http://www.w3.org/2000/svg" xmlns:xlink="http://www.w3.org/1999/xlink" version="1.1"><rect x="0" y="0" width="900" height="300" fill="#ffffff"></rect><path d="M0 134L15 126.2C30 118.3 60 102.7 90 97.2C120 91.7 150 96.3 180 103.2C210 110 240 119 270 126C300 133 330 138 360 138.3C390 138.7 420 134.3 450 129.8C480 125.3 510 120.7 540 118.5C570 116.3 600 116.7 630 121.5C660 126.3 690 135.7 720 129.7C750 123.7 780 102.3 810 92C840 81.7 870 82.3 885 82.7L900 83L900 301L885 301C870 301 840 301 810 301C780 301 750 301 720 301C690 301 660 301 630 301C600 301 570 301 540 301C510 301 480 301 450 301C420 301 390 301 360 301C330 301 300 301 270 301C240 301 210 301 180 301C150 301 120 301 90 301C60 301 30 301 15 301L0 301Z" fill="#fce8e6"></path><path d="M0 93L15 104.8C30 116.7 60 140.3 90 148.5C120 156.7 150 149.3 180 137.7C210 126 240 110 270 116C300 122 330 150 360 163.8C390 177.7 420 177.3 450 174C480 170.7 510 164.3 540 156.8C570 149.3 600 140.7 630 132.3C660 124 690 116 720 115.3C750 114.7 780 121.3 810 127.2C840 133 870 138 885 140.5L900 143L900 301L885 301C870 301 840 301 810 301C780 301 750 301 720 301C690 301 660 301 630 301C600 301 570 301 540 301C510 301 480 301 450 301C420 301 390 301 360 301C330 301 300 301 270 301C240 301 210 301 180 301C150 301 120 301 90 301C60 301 30 301 15 301L0 301Z" fill="#fde1de"></path><path d="M0 146L15 147.3C30 148.7 60 151.3 90 157C120 162.7 150 171.3 180 180.7C210 190 240 200 270 201.3C300 202.7 330 195.3 360 193.8C390 192.3 420 196.7 450 198.3C480 200 510 199 540 200.2C570 201.3 600 204.7 630 194.7C660 184.7 690 161.3 720 155.2C750 149 780 160 810 169.5C840 179 870 187 885 191L900 195L900 301L885 301C870 301 840 301 810 301C780 301 750 301 720 301C690 301 660 301 630 301C600 301 570 301 540 301C510 301 480 301 450 301C420 301 390 301 360 301C330 301 300 301 270 301C240 301 210 301 180 301C150 301 120 301 90 301C60 301 30 301 15 301L0 301Z" fill="#fedad6"></path><path d="M0 221L15 220.8C30 220.7 60 220.3 90 222.3C120 224.3 150 228.7 180 225.8C210 223 240 213 270 206.8C300 200.7 330 198.3 360 202C390 205.7 420 215.3 450 216C480 216.7 510 208.3 540 205.8C570 203.3 600 206.7 630 212C660 217.3 690 224.7 720 226C750 227.3 780 222.7 810 219.7C840 216.7 870 215.3 885 214.7L900 214L900 301L885 301C870 301 840 301 810 301C780 301 750 301 720 301C690 301 660 301 630 301C600 301 570 301 540 301C510 301 480 301 450 301C420 301 390 301 360 301C330 301 300 301 270 301C240 301 210 301 180 301C150 301 120 301 90 301C60 301 30 301 15 301L0 301Z" fill="#ffd3ce"></path><path d="M0 251L15 252.8C30 254.7 60 258.3 90 260.2C120 262 150 262 180 257.3C210 252.7 240 243.3 270 243.7C300 244 330 254 360 258.5C390 263 420 262 450 256.7C480 251.3 510 241.7 540 241C570 240.3 600 248.7 630 255.3C660 262 690 267 720 265C750 263 780 254 810 253.5C840 253 870 261 885 265L900 269L900 301L885 301C870 301 840 301 810 301C780 301 750 301 720 301C690 301 660 301 630 301C600 301 570 301 540 301C510 301 480 301 450 301C420 301 390 301 360 301C330 301 300 301 270 301C240 301 210 301 180 301C150 301 120 301 90 301C60 301 30 301 15 301L0 301Z" fill="#ffcbc6"></path></svg>