<svg id="visual" viewBox="0 0 960 300" width="960" height="300" xmlns="http://www.w3.org/2000/svg" xmlns:xlink="http://www.w3.org/1999/xlink" version="1.1"><rect x="0" y="0" width="960" height="300" fill="#001220"></rect><path d="M0 172L20 169.8C40 167.7 80 163.3 120 173.8C160 184.3 200 209.7 240 219.7C280 229.7 320 224.3 360 215C400 205.7 440 192.3 480 190.3C520 188.3 560 197.7 600 207C640 216.3 680 225.7 720 218C760 210.3 800 185.7 840 177.5C880 169.3 920 177.7 940 181.8L960 186L960 0L940 0C920 0 880 0 840 0C800 0 760 0 720 0C680 0 640 0 600 0C560 0 520 0 480 0C440 0 400 0 360 0C320 0 280 0 240 0C200 0 160 0 120 0C80 0 40 0 20 0L0 0Z" fill="#c62368"></path><path d="M0 114L20 116.2C40 118.3 80 122.7 120 125.3C160 128 200 129 240 131.8C280 134.7 320 139.3 360 144.5C400 149.7 440 155.3 480 161.2C520 167 560 173 600 170.8C640 168.7 680 158.3 720 151.2C760 144 800 140 840 144.2C880 148.3 920 160.7 940 166.8L960 173L960 0L940 0C920 0 880 0 840 0C800 0 760 0 720 0C680 0 640 0 600 0C560 0 520 0 480 0C440 0 400 0 360 0C320 0 280 0 240 0C200 0 160 0 120 0C80 0 40 0 20 0L0 0Z" fill="#da3f67"></path><path d="M0 129L20 126.7C40 124.3 80 119.7 120 117C160 114.3 200 113.7 240 108.8C280 104 320 95 360 93.5C400 92 440 98 480 102C520 106 560 108 600 104.3C640 100.7 680 91.3 720 91.2C760 91 800 100 840 108.3C880 116.7 920 124.3 940 128.2L960 132L960 0L940 0C920 0 880 0 840 0C800 0 760 0 720 0C680 0 640 0 600 0C560 0 520 0 480 0C440 0 400 0 360 0C320 0 280 0 240 0C200 0 160 0 120 0C80 0 40 0 20 0L0 0Z" fill="#eb5967"></path><path d="M0 52L20 53.5C40 55 80 58 120 63C160 68 200 75 240 75C280 75 320 68 360 65.5C400 63 440 65 480 64C520 63 560 59 600 55.5C640 52 680 49 720 47.5C760 46 800 46 840 48C880 50 920 54 940 56L960 58L960 0L940 0C920 0 880 0 840 0C800 0 760 0 720 0C680 0 640 0 600 0C560 0 520 0 480 0C440 0 400 0 360 0C320 0 280 0 240 0C200 0 160 0 120 0C80 0 40 0 20 0L0 0Z" fill="#fa7268"></path></svg>