<svg id="visual" viewBox="0 0 960 300" width="960" height="300" xmlns="http://www.w3.org/2000/svg" xmlns:xlink="http://www.w3.org/1999/xlink" version="1.1"><rect x="0" y="0" width="960" height="300" fill="#001220"></rect><path d="M0 126L20 128.2C40 130.3 80 134.7 120 124.2C160 113.7 200 88.3 240 78.3C280 68.3 320 73.7 360 83C400 92.3 440 105.7 480 107.7C520 109.7 560 100.3 600 91C640 81.7 680 72.3 720 80C760 87.7 800 112.3 840 120.5C880 128.7 920 120.3 940 116.2L960 112L960 301L940 301C920 301 880 301 840 301C800 301 760 301 720 301C680 301 640 301 600 301C560 301 520 301 480 301C440 301 400 301 360 301C320 301 280 301 240 301C200 301 160 301 120 301C80 301 40 301 20 301L0 301Z" fill="#c62368"></path><path d="M0 184L20 181.8C40 179.7 80 175.3 120 172.7C160 170 200 169 240 166.2C280 163.3 320 158.7 360 153.5C400 148.3 440 142.7 480 136.8C520 131 560 125 600 127.2C640 129.3 680 139.7 720 146.8C760 154 800 158 840 153.8C880 149.7 920 137.3 940 131.2L960 125L960 301L940 301C920 301 880 301 840 301C800 301 760 301 720 301C680 301 640 301 600 301C560 301 520 301 480 301C440 301 400 301 360 301C320 301 280 301 240 301C200 301 160 301 120 301C80 301 40 301 20 301L0 301Z" fill="#da3f67"></path><path d="M0 169L20 171.3C40 173.7 80 178.3 120 181C160 183.7 200 184.3 240 189.2C280 194 320 203 360 204.5C400 206 440 200 480 196C520 192 560 190 600 193.7C640 197.3 680 206.7 720 206.8C760 207 800 198 840 189.7C880 181.3 920 173.7 940 169.8L960 166L960 301L940 301C920 301 880 301 840 301C800 301 760 301 720 301C680 301 640 301 600 301C560 301 520 301 480 301C440 301 400 301 360 301C320 301 280 301 240 301C200 301 160 301 120 301C80 301 40 301 20 301L0 301Z" fill="#eb5967"></path><path d="M0 246L20 244.5C40 243 80 240 120 235C160 230 200 223 240 223C280 223 320 230 360 232.5C400 235 440 233 480 234C520 235 560 239 600 242.5C640 246 680 249 720 250.5C760 252 800 252 840 250C880 248 920 244 940 242L960 240L960 301L940 301C920 301 880 301 840 301C800 301 760 301 720 301C680 301 640 301 600 301C560 301 520 301 480 301C440 301 400 301 360 301C320 301 280 301 240 301C200 301 160 301 120 301C80 301 40 301 20 301L0 301Z" fill="#fa7268"></path></svg>